# xmcd CD database file
# Copyright (C) 1993-1998 Ti Kan
#
# Track frame offsets:
#	200
#	13860
#	27857
#	39865
#	60207
#	75685
#	94060
#	115980
#	132937
#	146455
#	162477
#	177242
#	192620
#	203187
#	218972
#	233720
#	256660
#	269682
#	279860
#	289850
#
# Disc length: 4112 seconds
#
# Revision: 1
# Processed by: cddbd v1.4b41PL1 Copyright (c) Steve Scherf et al.
# Submitted via: QuintessentialCD v1.1 (c) 1998 Paul Quinn
#
DISCID=1e100e14
DTITLE=David Allan Coe - 1990 Songs For Sale
DYEAR=1900
DGENRE=
TTITLE0=The Ghost of Hank Williams
TTITLE1=The Only Thing Missing Is you
TTITLE2=Someday You'll Have Children Of Your Own
TTITLE3=I'm Not Ready For That Now
TTITLE4=Then I Found You
TTITLE5=I Only Know That You're Gone
TTITLE6=A Marriage Made In Heaven (Went To Hell)
TTITLE7=It's Too Late Now
TTITLE8=Time Don't Mean That Much To Me No More
TTITLE9=The Penny
TTITLE10=Drinking Her Off My Mind
TTITLE11=When She Was A Honky Tonk Girl
TTITLE12=You've Got A Hold Of My Heart
TTITLE13=The Devil Was To Blame
TTITLE14=Another Place Another Time
TTITLE15=She's Trying So Hard To Make Leavin' Easy
TTITLE16=Tennessee Waltz With Me
TTITLE17=She Just Wants To Be Alone
TTITLE18=My Own Two Eyes
TTITLE19=Show Me Your Feelings
EXTD=
EXTT0=
EXTT1=
EXTT2=
EXTT3=
EXTT4=
EXTT5=
EXTT6=
EXTT7=
EXTT8=
EXTT9=
EXTT10=
EXTT11=
EXTT12=
EXTT13=
EXTT14=
EXTT15=
EXTT16=
EXTT17=
EXTT18=
EXTT19=
PLAYORDER=
